<?xml version="1.0" encoding="UTF-8" standalone="no"?>
<!DOCTYPE svg PUBLIC "-//W3C//DTD SVG 1.1//EN" "http://www.w3.org/Graphics/SVG/1.1/DTD/svg11.dtd">
<svg width="100%" height="100%" viewBox="0 0 280 158" version="1.1" xmlns="http://www.w3.org/2000/svg" xmlns:xlink="http://www.w3.org/1999/xlink" xml:space="preserve" xmlns:serif="http://www.serif.com/" style="fill-rule:evenodd;clip-rule:evenodd;stroke-linecap:round;stroke-linejoin:round;">
    <g>
        <clipPath id="_clip1">
            <rect x="0" y="0" width="280" height="157.5"/>
        </clipPath>
        <g clip-path="url(#_clip1)">
            <path d="M5.456,0C5.456,0 5.152,2.704 4.758,7.143C3.355,22.954 0.807,60.771 6.784,76.699C14.437,97.099 26.664,97.999 26.664,97.999C26.664,97.999 87.297,56.999 86.999,58.299C86.701,59.599 86.005,53.299 79.047,41.6C72.089,29.9 72.031,5.7 72.031,0" style="fill:white;"/>
            <path d="M5.32,0C5.32,0 -0.821,56.299 6.879,76.699C14.579,97.099 30.642,99.56 30.642,99.56C30.642,99.56 89.683,66.441 88.642,60.635C87.602,54.828 84.638,49.336 77.638,37.637C70.638,25.937 72.569,5.7 72.569,0" style="fill:none;fill-rule:nonzero;stroke:rgb(23,23,29);stroke-width:3px;"/>
            <g>
                <path d="M88.092,59.766C85.084,56.292 78.992,48.566 49.692,65.766C20.393,82.966 23.793,95.866 27.193,98.166C30.593,100.466 38.293,103.766 68.292,91.566C98.292,79.366 91.1,63.24 88.092,59.766Z" style="fill:white;stroke:rgb(23,23,29);stroke-width:3px;"/>
                <path d="M119.139,32.17C120.843,31.872 145.187,28.674 180.393,70.43C213.648,109.872 267.136,105.335 276.965,104.039C277.291,103.995 277.536,104.594 277.279,104.798L262.781,116.355C262.553,116.537 262.593,116.895 262.858,117.018C264.854,117.951 271.823,121.187 279.713,124.616C280.04,124.757 280.058,125.211 279.721,125.328C272.214,127.926 219.682,145.256 190.49,132.109C159.001,117.925 145.261,102.889 127.63,88.257C110.268,73.849 100.039,66.55 87,63.1C87,63.1 111.99,39.418 117.843,33.475C118.661,32.645 119.131,32.171 119.139,32.17Z" style="fill:rgb(236,55,80);stroke:rgb(23,23,29);stroke-width:6px;stroke-linecap:butt;stroke-linejoin:miter;"/>
                <g transform="matrix(0.31678,0.165678,-0.165678,0.31678,107.752,20.431)">
                    <g transform="matrix(0.53625,0,0,0.53625,33.3493,0.798056)">
                        <path d="M83.681,33.113C82.352,40.627 79.802,53.534 74.44,70.214C63.304,96.816 82.296,92.477 87.735,81.425C90.958,75.322 94.273,68.699 94.273,68.699L111.341,75.242C111.341,75.242 109.967,83.015 108.562,89.445C103.2,106.125 118.831,104.122 123.154,91.8C125.078,85.463 134.045,59.006 136.518,45.014C140.246,36.061 127.486,27.887 121.713,42.354C118.627,47.68 113.616,59.344 113.616,59.344C113.616,59.344 99.528,54.139 99.36,53.574C98.81,52.139 100.536,48.439 100.612,44.978C99.754,21.032 85.468,23.008 83.681,33.113Z" style="fill:white;fill-rule:nonzero;stroke:white;stroke-width:0.25px;stroke-linecap:butt;stroke-linejoin:miter;stroke-miterlimit:10;"/>
                    </g>
                    <g transform="matrix(0.53625,0,0,0.53625,33.3493,0.798056)">
                        <path d="M158.883,51.762C163.227,43.114 168.215,41.664 171.924,42.058C173.524,42.19 175.7,45.445 177.364,48.571C182.812,69.158 173.049,107.023 171.323,109.566C165.381,119.164 154.955,117.349 158.915,106.98C160.765,100.681 162.746,94.955 162.746,94.955L149.25,93.448C138.645,114.05 129.11,105.424 134.605,96.524C140.483,86.098 153.006,63.271 158.883,51.762ZM154.422,78.242L167.726,80.513C167.726,80.513 171.421,57.086 167.266,59.558L154.422,78.242Z" style="fill:white;fill-rule:nonzero;stroke:white;stroke-width:0.25px;stroke-linecap:butt;stroke-linejoin:miter;stroke-miterlimit:10;"/>
                    </g>
                    <g transform="matrix(0.53625,0,0,0.53625,33.3493,0.798056)">
                        <path d="M227.586,72.519C229.347,67.557 225.686,56.337 212.896,58.208C194.371,58.342 187.962,90.8 187.962,90.8C187.962,90.8 184.883,106.52 189.742,117.234C194.158,127.564 204.87,127.597 206.95,127.859C219.109,124.203 214.945,116.102 212.866,115.841C210.219,115.706 206.628,116.14 203.728,113.775C198.811,109.812 199.687,99.753 200.755,94.342C203.27,85.244 208.805,67.175 217.63,71.596C222.926,78.364 226.642,75.255 227.586,72.519Z" style="fill:white;fill-rule:nonzero;stroke:white;stroke-width:0.25px;stroke-linecap:butt;stroke-linejoin:miter;stroke-miterlimit:10;"/>
                    </g>
                    <g transform="matrix(0.53625,0,0,0.53625,33.3493,0.798056)">
                        <path d="M239.769,71.685C236.512,81.632 240.596,92.108 232.451,111.044C230.509,115.669 225.746,124.151 225.182,125.355C220.67,133.903 229.832,138.941 239.924,124.006C242.369,120.588 245.062,111.845 245.062,111.845L249.453,111.352C249.453,111.352 253.289,128.233 254.172,135.465C255.116,142.444 267.478,146.414 267.658,132.717C267.217,128.022 265.581,121.675 262.503,113.612C262.503,113.612 260.492,107.707 258.547,106.94C258.547,106.94 272.341,93.222 273.656,87.898C275.033,82.322 272.521,78.445 261.735,87.544C250.95,96.643 249.697,99.556 249.697,99.556C249.697,99.556 252.262,88.085 252.006,79.396C252.943,70.204 242.587,63.513 239.769,71.685Z" style="fill:white;fill-rule:nonzero;stroke:white;stroke-width:0.25px;stroke-linecap:butt;stroke-linejoin:miter;stroke-miterlimit:10;"/>
                    </g>
                    <g transform="matrix(0.579265,0.221245,-0.230031,0.602267,43.1474,-73.7251)">
                        <path d="M309.24,88.969C304.612,93.556 301.7,102.169 302.025,115.2C302.67,134.651 310.729,145.826 324.489,143.601C338.249,141.375 335.009,131.447 333.741,131.118C332.727,130.855 332.472,129.688 326.83,131.81C321.186,133.931 316.937,131.454 313.38,122.821C311.03,116.979 309.756,105.63 314.001,99.291C315.269,97.415 316.473,96.899 317.107,96.512C319.643,94.965 322.243,96.464 322.688,96.855C329.794,101.998 331.185,96.298 328.645,91.233C323.632,84.151 316.973,82.704 309.24,88.968Z" style="fill:white;fill-rule:nonzero;stroke:white;stroke-width:0.25px;stroke-linecap:butt;stroke-linejoin:miter;stroke-miterlimit:10;"/>
                    </g>
                    <g transform="matrix(0.547307,0.291465,-0.303039,0.569041,64.2773,-91.6326)">
                        <path d="M340,89.262C339.933,81.879 347.556,76.187 350.236,92.697C353.546,103.365 352.704,123.993 354.292,125.903C355.88,127.813 367.702,125.147 370.903,124.07C374.103,122.993 380.001,124.407 378.668,127.613C377.589,130.884 374.538,131.195 373.903,131.579C373.267,131.962 346.547,139.883 345.555,134.61C344.563,129.336 344.5,126.909 343.5,117.928C342.5,108.946 340.068,96.647 340,89.262Z" style="fill:white;fill-rule:nonzero;stroke:white;stroke-width:0.25px;stroke-linecap:butt;stroke-linejoin:miter;stroke-miterlimit:10;"/>
                    </g>
                    <g transform="matrix(0.579265,0.221245,-0.230031,0.602267,47.0399,-65.5741)">
                        <path d="M372.043,82.654C371.463,77.316 376.906,74.055 380.112,79.786C382.547,84.229 385.376,103.524 389.352,111.637C391.532,114.922 396.015,115.514 398.128,112.5C400.623,107.943 398.823,96.559 397.281,87.425C396.189,83.05 394.931,79.706 394.994,77.263C395.95,69.037 402.548,70.986 405.627,79.417C408.193,88.812 410.867,103.989 409.526,109.385C408.248,114.523 406.906,121.012 400.246,122.599C398.517,122.98 384.108,125.056 379.04,109.29C374.162,92.753 372.623,87.991 372.043,82.654Z" style="fill:white;fill-rule:nonzero;stroke:white;stroke-width:0.25px;stroke-linecap:butt;stroke-linejoin:miter;stroke-miterlimit:10;"/>
                    </g>
                    <g transform="matrix(0.579265,0.221245,-0.230031,0.602267,49.9364,-60.9143)">
                        <path d="M417.228,65.032C426.089,59.676 432.737,57.838 437.93,59.714C440.97,61.581 442.936,66.714 442.116,71.134C441.169,74.976 439.587,78.111 439.587,78.111C444.843,78.641 448.692,83.887 449.692,90.753C450.692,97.619 444.224,104.081 432.196,108.081C428.144,109.222 423.839,109.208 423.648,107.798C423.519,105.041 413.307,72.198 413.307,72.198C412.988,70.209 411.911,68.028 417.228,65.032ZM420.903,70.876L425.342,81.271C425.342,81.271 436.104,76.947 434.834,71.175C433.565,65.403 426.792,68.842 420.903,70.876ZM426.866,89.287C426.866,89.287 429.912,102.049 429.786,101.472C429.721,100.639 445.476,97.501 442.116,89.287C438.754,81.074 426.866,89.287 426.866,89.287Z" style="fill:white;fill-rule:nonzero;stroke:white;stroke-width:0.25px;stroke-linecap:butt;stroke-linejoin:miter;stroke-miterlimit:10;"/>
                    </g>
                    <g transform="matrix(2.9624,0,0,1.53107,-660.854,1.08919)">
                        <g transform="matrix(10.3172,6.19165,-3.20005,19.9623,238.959,62.5356)">
                            <path d="M0.511,-0.915C0.598,-0.915 0.677,-0.885 0.749,-0.825C0.768,-0.808 0.783,-0.778 0.791,-0.735C0.772,-0.658 0.746,-0.619 0.711,-0.619C0.697,-0.624 0.687,-0.632 0.68,-0.646L0.68,-0.661L0.685,-0.688C0.649,-0.709 0.6,-0.719 0.537,-0.719C0.429,-0.719 0.339,-0.654 0.267,-0.523C0.253,-0.465 0.246,-0.429 0.246,-0.413L0.246,-0.386C0.246,-0.291 0.285,-0.201 0.362,-0.116C0.399,-0.085 0.427,-0.069 0.447,-0.069L0.468,-0.069C0.489,-0.069 0.533,-0.09 0.601,-0.132L0.632,-0.138C0.699,-0.138 0.733,-0.101 0.733,-0.026C0.733,0.022 0.683,0.073 0.584,0.127C0.544,0.141 0.509,0.148 0.479,0.148L0.437,0.148C0.337,0.148 0.238,0.084 0.14,-0.042C0.066,-0.149 0.029,-0.277 0.029,-0.428C0.04,-0.509 0.059,-0.581 0.087,-0.646C0.197,-0.825 0.339,-0.915 0.511,-0.915Z" style="fill:white;fill-rule:nonzero;"/>
                        </g>
                        <g transform="matrix(10.4993,4.91324,-2.53932,20.3147,248.009,67.6741)">
                            <path d="M0.368,-0.889L0.373,-0.889C0.394,-0.889 0.421,-0.88 0.453,-0.862L0.511,-0.862C0.659,-0.862 0.76,-0.771 0.812,-0.587C0.819,-0.556 0.825,-0.512 0.828,-0.455C0.828,-0.281 0.773,-0.124 0.664,0.016C0.584,0.097 0.498,0.138 0.405,0.138C0.318,0.138 0.23,0.094 0.14,0.005C0.066,-0.083 0.029,-0.19 0.029,-0.317C0.029,-0.512 0.095,-0.685 0.225,-0.836C0.27,-0.871 0.317,-0.889 0.368,-0.889ZM0.32,-0.682C0.257,-0.575 0.225,-0.457 0.225,-0.328L0.225,-0.317C0.225,-0.193 0.278,-0.11 0.384,-0.069L0.416,-0.063C0.473,-0.063 0.529,-0.127 0.584,-0.254C0.606,-0.318 0.616,-0.367 0.616,-0.402L0.616,-0.508C0.616,-0.561 0.592,-0.608 0.542,-0.65C0.515,-0.663 0.476,-0.672 0.426,-0.677L0.394,-0.672C0.387,-0.672 0.362,-0.675 0.32,-0.682Z" style="fill:white;fill-rule:nonzero;"/>
                        </g>
                        <g transform="matrix(10.5384,4.58977,-2.37215,20.3902,257.996,72.7996)">
                            <path d="M0.13,-0.936C0.2,-0.936 0.245,-0.885 0.267,-0.783C0.324,-0.649 0.368,-0.55 0.399,-0.487L0.405,-0.487C0.465,-0.741 0.513,-0.868 0.548,-0.868C0.568,-0.892 0.592,-0.904 0.622,-0.904C0.659,-0.904 0.682,-0.878 0.69,-0.825L0.69,-0.777C0.69,-0.655 0.728,-0.405 0.802,-0.026C0.802,0.055 0.777,0.095 0.728,0.095L0.722,0.095C0.643,0.095 0.592,-0.011 0.569,-0.222C0.565,-0.228 0.562,-0.249 0.558,-0.286L0.553,-0.286C0.545,-0.245 0.522,-0.208 0.484,-0.174C0.479,-0.174 0.462,-0.169 0.431,-0.159C0.389,-0.159 0.343,-0.197 0.294,-0.275C0.29,-0.275 0.265,-0.312 0.22,-0.386C0.22,-0.111 0.202,0.026 0.167,0.026L0.14,0.032C0.066,0.032 0.029,-0.09 0.029,-0.333C0.041,-0.707 0.051,-0.894 0.061,-0.894C0.081,-0.914 0.104,-0.928 0.13,-0.936Z" style="fill:white;fill-rule:nonzero;"/>
                        </g>
                        <g transform="matrix(10.5384,4.58977,-2.37215,20.3902,266.856,76.6588)">
                            <path d="M0.13,-0.936C0.2,-0.936 0.245,-0.885 0.267,-0.783C0.324,-0.649 0.368,-0.55 0.399,-0.487L0.405,-0.487C0.465,-0.741 0.513,-0.868 0.548,-0.868C0.568,-0.892 0.592,-0.904 0.622,-0.904C0.659,-0.904 0.682,-0.878 0.69,-0.825L0.69,-0.777C0.69,-0.655 0.728,-0.405 0.802,-0.026C0.802,0.055 0.777,0.095 0.728,0.095L0.722,0.095C0.643,0.095 0.592,-0.011 0.569,-0.222C0.565,-0.228 0.562,-0.249 0.558,-0.286L0.553,-0.286C0.545,-0.245 0.522,-0.208 0.484,-0.174C0.479,-0.174 0.462,-0.169 0.431,-0.159C0.389,-0.159 0.343,-0.197 0.294,-0.275C0.29,-0.275 0.265,-0.312 0.22,-0.386C0.22,-0.111 0.202,0.026 0.167,0.026L0.14,0.032C0.066,0.032 0.029,-0.09 0.029,-0.333C0.041,-0.707 0.051,-0.894 0.061,-0.894C0.081,-0.914 0.104,-0.928 0.13,-0.936Z" style="fill:white;fill-rule:nonzero;"/>
                        </g>
                        <g transform="matrix(10.2143,6.8004,-3.51467,19.7632,276.323,78.8106)">
                            <path d="M0.563,-0.936L0.569,-0.936C0.666,-0.936 0.735,-0.862 0.775,-0.714C0.789,-0.648 0.796,-0.571 0.796,-0.481L0.796,-0.465C0.796,-0.283 0.747,-0.132 0.648,-0.011C0.584,0.049 0.526,0.08 0.474,0.08L0.41,0.08C0.304,0.08 0.207,0.021 0.119,-0.095C0.059,-0.184 0.029,-0.319 0.029,-0.502L0.029,-0.788C0.035,-0.834 0.055,-0.857 0.087,-0.857L0.108,-0.857C0.166,-0.857 0.2,-0.774 0.209,-0.608C0.209,-0.494 0.225,-0.378 0.257,-0.259C0.307,-0.167 0.369,-0.122 0.442,-0.122C0.504,-0.122 0.55,-0.208 0.58,-0.381L0.59,-0.519C0.59,-0.561 0.565,-0.68 0.516,-0.878L0.516,-0.883C0.521,-0.918 0.537,-0.936 0.563,-0.936Z" style="fill:white;fill-rule:nonzero;"/>
                        </g>
                        <g transform="matrix(10.7212,2.55203,-1.31897,20.744,286.756,85.8173)">
                            <path d="M0.156,-0.894C0.242,-0.894 0.339,-0.76 0.447,-0.492C0.452,-0.492 0.471,-0.458 0.505,-0.392L0.511,-0.392C0.504,-0.423 0.5,-0.465 0.5,-0.519L0.5,-0.566C0.5,-0.713 0.53,-0.799 0.59,-0.825L0.616,-0.831L0.622,-0.831C0.661,-0.831 0.687,-0.801 0.701,-0.741C0.694,-0.618 0.69,-0.539 0.69,-0.502C0.69,-0.364 0.724,-0.228 0.791,-0.095C0.809,-0.055 0.817,-0.025 0.817,-0.005L0.817,0.026C0.812,0.09 0.787,0.122 0.743,0.122L0.728,0.122C0.608,0.122 0.455,-0.042 0.267,-0.37L0.267,-0.381L0.262,-0.381C0.262,-0.351 0.26,-0.319 0.257,-0.286L0.289,-0.037C0.289,0.005 0.26,0.032 0.204,0.042L0.183,0.042C0.098,0.042 0.049,-0.042 0.035,-0.211C0.031,-0.222 0.029,-0.248 0.029,-0.291C0.047,-0.686 0.077,-0.883 0.119,-0.883C0.133,-0.89 0.146,-0.894 0.156,-0.894Z" style="fill:white;fill-rule:nonzero;"/>
                        </g>
                        <g transform="matrix(10.7914,0.929318,-0.480303,20.8798,296.481,90.8427)">
                            <path d="M0.177,-0.91L0.188,-0.91C0.245,-0.91 0.276,-0.864 0.283,-0.772C0.287,-0.754 0.289,-0.72 0.289,-0.672C0.289,-0.258 0.266,-0.016 0.22,0.053C0.197,0.085 0.176,0.101 0.156,0.101L0.135,0.101C0.073,0.101 0.037,0.028 0.029,-0.116C0.055,-0.631 0.087,-0.889 0.125,-0.889C0.139,-0.903 0.157,-0.91 0.177,-0.91Z" style="fill:white;fill-rule:nonzero;"/>
                        </g>
                        <g transform="matrix(10.7914,0.929318,-0.480303,20.8798,300.838,92.2907)">
                            <path d="M0.68,-0.899C0.726,-0.888 0.749,-0.865 0.749,-0.831C0.749,-0.756 0.664,-0.703 0.495,-0.672C0.53,-0.427 0.548,-0.235 0.548,-0.095L0.548,-0.016C0.548,0.031 0.521,0.066 0.468,0.09C0.393,0.09 0.347,0.028 0.331,-0.095C0.327,-0.274 0.326,-0.413 0.326,-0.513L0.326,-0.661L0.304,-0.661C0.205,-0.661 0.117,-0.689 0.04,-0.746L0.029,-0.762L0.029,-0.788C0.029,-0.823 0.052,-0.842 0.098,-0.846C0.249,-0.843 0.337,-0.841 0.362,-0.841C0.395,-0.841 0.485,-0.86 0.632,-0.899L0.68,-0.899Z" style="fill:white;fill-rule:nonzero;"/>
                        </g>
                        <g transform="matrix(10.7914,0.929318,-0.480303,20.8798,310.026,94.9002)">
                            <path d="M0.119,-0.947C0.178,-0.947 0.24,-0.875 0.304,-0.73C0.353,-0.657 0.383,-0.606 0.394,-0.577C0.512,-0.745 0.6,-0.86 0.659,-0.92C0.672,-0.931 0.684,-0.936 0.696,-0.936C0.727,-0.936 0.75,-0.918 0.765,-0.883L0.765,-0.831C0.758,-0.776 0.702,-0.665 0.595,-0.497C0.45,-0.203 0.369,-0.044 0.352,-0.021C0.326,0.025 0.291,0.048 0.246,0.048C0.203,0.048 0.179,0.014 0.172,-0.053L0.172,-0.058C0.172,-0.12 0.209,-0.226 0.283,-0.375L0.283,-0.381C0.226,-0.381 0.15,-0.497 0.056,-0.73C0.038,-0.78 0.029,-0.817 0.029,-0.841L0.029,-0.868C0.029,-0.903 0.056,-0.929 0.108,-0.947L0.119,-0.947Z" style="fill:white;fill-rule:nonzero;"/>
                        </g>
                        <g transform="matrix(10.604,-3.984,2.05906,20.5172,323.606,98.0786)">
                            <path d="M0.262,-0.894C0.37,-0.894 0.491,-0.859 0.627,-0.788C0.715,-0.726 0.759,-0.645 0.759,-0.545L0.759,-0.54C0.759,-0.382 0.641,-0.275 0.405,-0.217C0.362,-0.21 0.329,-0.206 0.304,-0.206L0.257,-0.206C0.251,-0.034 0.235,0.053 0.209,0.053C0.196,0.081 0.173,0.095 0.14,0.095C0.092,0.095 0.056,0.041 0.035,-0.069L0.035,-0.106L0.056,-0.661L0.056,-0.667C0.042,-0.667 0.034,-0.681 0.029,-0.709L0.029,-0.746C0.029,-0.816 0.08,-0.863 0.183,-0.889C0.218,-0.892 0.244,-0.894 0.262,-0.894ZM0.23,-0.756C0.252,-0.676 0.262,-0.563 0.262,-0.418L0.352,-0.418C0.414,-0.418 0.484,-0.441 0.563,-0.487C0.585,-0.509 0.595,-0.532 0.595,-0.555C0.595,-0.594 0.569,-0.631 0.516,-0.667C0.39,-0.726 0.295,-0.756 0.23,-0.756Z" style="fill:white;fill-rule:nonzero;"/>
                        </g>
                        <g transform="matrix(10.604,-3.984,2.05906,20.5172,332.072,94.898)">
                            <path d="M0.431,-0.894L0.468,-0.894C0.572,-0.894 0.649,-0.841 0.701,-0.735C0.715,-0.687 0.722,-0.653 0.722,-0.635L0.722,-0.577C0.722,-0.517 0.682,-0.442 0.601,-0.349C0.553,-0.305 0.5,-0.27 0.442,-0.243L0.442,-0.238C0.446,-0.238 0.472,-0.217 0.521,-0.174C0.608,-0.127 0.666,-0.092 0.696,-0.069C0.71,-0.048 0.717,-0.032 0.717,-0.021C0.717,0.035 0.673,0.063 0.584,0.063C0.488,0.055 0.384,-0.014 0.272,-0.143L0.272,-0.079C0.272,0.034 0.236,0.09 0.162,0.09C0.099,0.09 0.063,0.026 0.056,-0.101L0.056,-0.153C0.056,-0.246 0.064,-0.402 0.082,-0.619L0.066,-0.608L0.05,-0.608C0.045,-0.608 0.038,-0.615 0.029,-0.629L0.029,-0.646C0.029,-0.66 0.049,-0.693 0.087,-0.746C0.087,-0.793 0.119,-0.82 0.183,-0.825C0.193,-0.825 0.23,-0.839 0.294,-0.868C0.355,-0.885 0.401,-0.894 0.431,-0.894ZM0.257,-0.719C0.271,-0.639 0.278,-0.549 0.278,-0.45C0.303,-0.426 0.315,-0.41 0.315,-0.402C0.365,-0.402 0.427,-0.432 0.5,-0.492C0.546,-0.536 0.569,-0.582 0.569,-0.629C0.556,-0.707 0.521,-0.746 0.463,-0.746C0.463,-0.749 0.452,-0.751 0.431,-0.751L0.378,-0.751C0.297,-0.74 0.257,-0.73 0.257,-0.719Z" style="fill:white;fill-rule:nonzero;"/>
                        </g>
                        <g transform="matrix(10.604,-3.984,2.05906,20.5172,340.144,91.8652)">
                            <path d="M0.368,-0.889L0.373,-0.889C0.394,-0.889 0.421,-0.88 0.453,-0.862L0.511,-0.862C0.659,-0.862 0.76,-0.771 0.812,-0.587C0.819,-0.556 0.825,-0.512 0.828,-0.455C0.828,-0.281 0.773,-0.124 0.664,0.016C0.584,0.097 0.498,0.138 0.405,0.138C0.318,0.138 0.23,0.094 0.14,0.005C0.066,-0.083 0.029,-0.19 0.029,-0.317C0.029,-0.512 0.095,-0.685 0.225,-0.836C0.27,-0.871 0.317,-0.889 0.368,-0.889ZM0.32,-0.682C0.257,-0.575 0.225,-0.457 0.225,-0.328L0.225,-0.317C0.225,-0.193 0.278,-0.11 0.384,-0.069L0.416,-0.063C0.473,-0.063 0.529,-0.127 0.584,-0.254C0.606,-0.318 0.616,-0.367 0.616,-0.402L0.616,-0.508C0.616,-0.561 0.592,-0.608 0.542,-0.65C0.515,-0.663 0.476,-0.672 0.426,-0.677L0.394,-0.672C0.387,-0.672 0.362,-0.675 0.32,-0.682Z" style="fill:white;fill-rule:nonzero;"/>
                        </g>
                        <g transform="matrix(10.0573,-7.62618,3.94147,19.4594,349.517,89.1885)">
                            <path d="M0.553,-0.92L0.58,-0.92C0.627,-0.92 0.66,-0.876 0.68,-0.788C0.7,-0.719 0.75,-0.587 0.828,-0.392L0.854,-0.243C0.854,-0.065 0.773,0.055 0.611,0.116C0.516,0.145 0.438,0.159 0.378,0.159C0.285,0.159 0.195,0.123 0.108,0.053C0.058,0 0.032,-0.058 0.029,-0.122L0.029,-0.148C0.029,-0.233 0.066,-0.305 0.14,-0.365L0.172,-0.37L0.188,-0.37C0.228,-0.37 0.251,-0.314 0.257,-0.201C0.257,-0.156 0.289,-0.123 0.352,-0.101L0.416,-0.095L0.426,-0.095C0.56,-0.105 0.627,-0.137 0.627,-0.19L0.627,-0.249C0.627,-0.294 0.583,-0.428 0.495,-0.65C0.473,-0.714 0.463,-0.765 0.463,-0.804C0.463,-0.866 0.493,-0.905 0.553,-0.92Z" style="fill:white;fill-rule:nonzero;"/>
                        </g>
                        <g transform="matrix(10.0573,-7.62618,3.94147,19.4594,358.504,82.3741)">
                            <path d="M0.553,-0.904C0.623,-0.904 0.667,-0.882 0.685,-0.836L0.685,-0.831C0.685,-0.783 0.618,-0.753 0.484,-0.741C0.37,-0.737 0.307,-0.734 0.294,-0.73C0.308,-0.602 0.315,-0.511 0.315,-0.455L0.32,-0.455C0.413,-0.462 0.49,-0.465 0.553,-0.465C0.634,-0.448 0.675,-0.418 0.675,-0.375C0.655,-0.323 0.596,-0.296 0.5,-0.296L0.389,-0.296L0.326,-0.301L0.326,-0.18C0.326,-0.165 0.322,-0.126 0.315,-0.063L0.32,-0.063C0.341,-0.063 0.425,-0.065 0.574,-0.069C0.68,-0.069 0.733,-0.032 0.733,0.042C0.733,0.062 0.715,0.083 0.68,0.106C0.671,0.113 0.629,0.12 0.553,0.127C0.289,0.127 0.132,0.102 0.082,0.053C0.072,0.026 0.066,0.006 0.066,-0.005C0.082,-0.044 0.099,-0.063 0.119,-0.063C0.112,-0.091 0.108,-0.125 0.108,-0.164L0.108,-0.624C0.108,-0.649 0.11,-0.688 0.114,-0.741C0.057,-0.747 0.029,-0.767 0.029,-0.799L0.029,-0.804C0.029,-0.838 0.073,-0.86 0.162,-0.868L0.172,-0.873L0.177,-0.873C0.393,-0.894 0.519,-0.904 0.553,-0.904Z" style="fill:white;fill-rule:nonzero;"/>
                        </g>
                        <g transform="matrix(9.41958,-10.2302,5.28731,18.2256,367.029,73.1153)">
                            <path d="M0.511,-0.915C0.598,-0.915 0.677,-0.885 0.749,-0.825C0.768,-0.808 0.783,-0.778 0.791,-0.735C0.772,-0.658 0.746,-0.619 0.711,-0.619C0.697,-0.624 0.687,-0.632 0.68,-0.646L0.68,-0.661L0.685,-0.688C0.649,-0.709 0.6,-0.719 0.537,-0.719C0.429,-0.719 0.339,-0.654 0.267,-0.523C0.253,-0.465 0.246,-0.429 0.246,-0.413L0.246,-0.386C0.246,-0.291 0.285,-0.201 0.362,-0.116C0.399,-0.085 0.427,-0.069 0.447,-0.069L0.468,-0.069C0.489,-0.069 0.533,-0.09 0.601,-0.132L0.632,-0.138C0.699,-0.138 0.733,-0.101 0.733,-0.026C0.733,0.022 0.683,0.073 0.584,0.127C0.544,0.141 0.509,0.148 0.479,0.148L0.437,0.148C0.337,0.148 0.238,0.084 0.14,-0.042C0.066,-0.149 0.029,-0.277 0.029,-0.428C0.04,-0.509 0.059,-0.581 0.087,-0.646C0.197,-0.825 0.339,-0.915 0.511,-0.915Z" style="fill:white;fill-rule:nonzero;"/>
                        </g>
                        <g transform="matrix(9.41958,-10.2302,5.28731,18.2256,374.848,64.6234)">
                            <path d="M0.68,-0.899C0.726,-0.888 0.749,-0.865 0.749,-0.831C0.749,-0.756 0.664,-0.703 0.495,-0.672C0.53,-0.427 0.548,-0.235 0.548,-0.095L0.548,-0.016C0.548,0.031 0.521,0.066 0.468,0.09C0.393,0.09 0.347,0.028 0.331,-0.095C0.327,-0.274 0.326,-0.413 0.326,-0.513L0.326,-0.661L0.304,-0.661C0.205,-0.661 0.117,-0.689 0.04,-0.746L0.029,-0.762L0.029,-0.788C0.029,-0.823 0.052,-0.842 0.098,-0.846C0.249,-0.843 0.337,-0.841 0.362,-0.841C0.395,-0.841 0.485,-0.86 0.632,-0.899L0.68,-0.899Z" style="fill:white;fill-rule:nonzero;"/>
                        </g>
                    </g>
                </g>
            </g>
            <path d="M90,60L48,100.362L51.379,101.867L92.5,62L90,60Z" style="fill:rgb(23,23,29);fill-rule:nonzero;"/>
            <path d="M75,72.658C75.7,74.358 82.5,81.258 78.8,82.258C75.1,83.258 76.4,91.758 83.7,89.858C91,87.958 93.3,78.358 86.3,74.358C79.3,70.358 75,72.658 75,72.658Z" style="fill:white;stroke:rgb(37,36,41);stroke-width:3px;"/>
            <path d="M62,81.658C62.7,83.358 69.5,90.258 65.8,91.258C62.1,92.258 63.4,100.758 70.7,98.858C78,96.958 80.3,87.358 73.3,83.358C66.3,79.358 62,81.658 62,81.658Z" style="fill:white;stroke:rgb(37,36,41);stroke-width:3px;"/>
            <path d="M49,90.658C49.7,92.358 56.5,99.258 52.8,100.258C49.1,101.258 50.4,109.758 57.7,107.858C65,105.958 67.3,96.358 60.3,92.358C53.3,88.358 49,90.658 49,90.658Z" style="fill:white;stroke:rgb(37,36,41);stroke-width:3px;"/>
        </g>
    </g>
</svg>
